# xmcd
#
# Track frame offsets: 
#        150
#        7260
#        17681
#        35936
#        50063
#        68367
#        82926
#        104193
#        122811
#        139668
#        153886
#        165082
#        182846
#        201462
#        220040
#
# Disc length: 3179 seconds
#
# Revision: 0
# Processed by: cddbd v1.5.2PL0 Copyright (c) Steve Scherf et al.
# Submitted via: ExactAudioCopy v1.0b1
#
DISCID=cf0c690f
DTITLE=Matti - Räp, Rauta and Rakkaus
DYEAR=2011
DGENRE=Rap
TTITLE0=Intro
TTITLE1=Kahleet
TTITLE2=tällä tavalla ft. Zugola
TTITLE3=Kultaista
TTITLE4=Herrasmiehet yössä ft. GLF
TTITLE5=Hulk
TTITLE6=Lemmenlaiva
TTITLE7=Kolmen kopla
TTITLE8=Tykkään ja en
TTITLE9=Kyselyikä feat. Aves
TTITLE10=Päivä menneisyydestä
TTITLE11=Päivä puistossa
TTITLE12=Muskeliauto
TTITLE13=Sivusta seuraamalla
TTITLE14=My love
EXTD=
EXTT0=
EXTT1=
EXTT2=
EXTT3=
EXTT4=
EXTT5=
EXTT6=
EXTT7=
EXTT8=
EXTT9=
EXTT10=
EXTT11=
EXTT12=
EXTT13=
EXTT14=
PLAYORDER=
